# xmcd
#
# Track frame offsets:
#	150
#	21987
#	43740
#	61837
#	83332
#	99800
#	117292
#	135947
#	156725
#	178175
#	193442
#
# Disc length: 2889 seconds
#
# Revision: 8
# Processed by: cddbd v1.5.2PL0 Copyright (c) Steve Scherf et al.
# Submitted via: audiograbber 1.83.01
#
DISCID=8f0b470b
DTITLE=Rainhard Fendrich - Kein schöner Land
DYEAR=1986
DGENRE=AustroPop
TTITLE0=Tränen trocknen schnell
TTITLE1=Kein schöner Land
TTITLE2=Nancy
TTITLE3=Heidenangst
TTITLE4=Tante Hilde
TTITLE5=Vogelfrei
TTITLE6=Malibu
TTITLE7=Eisern wie a Ehrenwort
TTITLE8=Alles was du willst
TTITLE9=Es ist ein Lachen auf der Welt
TTITLE10=Weihnachten daheim
EXTD=by Diddl
EXTT0=
EXTT1=
EXTT2=
EXTT3=
EXTT4=
EXTT5=
EXTT6=
EXTT7=
EXTT8=
EXTT9=
EXTT10=
PLAYORDER=
